<svg width="90" height="90" viewBox="0 0 90 90" fill="none" xmlns="http://www.w3.org/2000/svg">
<path fill-rule="evenodd" clip-rule="evenodd" d="M8.4375 78.75H84.375V73.125H11.25V0H5.625V75.9375L8.4375 78.75ZM16.875 64.6875V19.6875L19.6875 16.875H30.9375L33.75 19.6875V64.6875L30.9375 67.5H19.6875L16.875 64.6875ZM28.125 61.875V22.5H22.5V61.875H28.125ZM61.875 8.4375V64.6875L64.6875 67.5H75.9375L78.75 64.6875V8.4375L75.9375 5.625H64.6875L61.875 8.4375ZM73.125 11.25V61.875H67.5V11.25H73.125ZM39.375 64.6875V30.9375L42.1875 28.125H53.4375L56.25 30.9375V64.6875L53.4375 67.5H42.1875L39.375 64.6875ZM50.625 61.875V33.75H45V61.875H50.625Z" fill="#043249"/>
</svg>
