<svg width="85" height="85" viewBox="0 0 85 85" fill="none" xmlns="http://www.w3.org/2000/svg">
<path d="M77.3633 2.65625H7.63672C5.14648 2.65625 2.65625 5.14648 2.65625 7.63672V63.6677C2.65625 66.1579 5.14648 68.6481 7.63672 68.6481H32.5391V73.6286C32.5391 77.087 28.0527 78.6091 22.5781 78.6091V82.3438H62.4219V78.6077C56.946 78.6077 52.4609 77.0857 52.4609 73.6273V68.6468H77.3633C79.8535 68.6468 82.3438 66.1566 82.3438 63.6663V7.63672C82.3438 5.14648 79.8535 2.65625 77.3633 2.65625ZM79.6875 63.6677C79.6875 64.689 78.3833 65.9919 77.3633 65.9919H7.63672C6.61539 65.9919 5.3125 64.689 5.3125 63.6677V58.6872H79.6875V63.6677Z" fill="#043249"/>
<path d="M42.5002 64.9134C43.1882 64.9134 43.746 64.3557 43.746 63.6677C43.746 62.9796 43.1882 62.4219 42.5002 62.4219C41.8122 62.4219 41.2544 62.9796 41.2544 63.6677C41.2544 64.3557 41.8122 64.9134 42.5002 64.9134Z" fill="#6600FF"/>
</svg>
