<svg width="90" height="90" viewBox="0 0 90 90" fill="none" xmlns="http://www.w3.org/2000/svg">
<g clip-path="url(#clip0_7_256)">
<path d="M0 39.3749V87.1874C0 88.7413 1.00688 89.9999 2.25 89.9999H13.5V33.7499H4.5C2.01516 33.7499 0 36.2688 0 39.3749ZM50.625 30.9374H47.25V23.9061C47.25 23.1292 46.7466 22.4999 46.125 22.4999H43.875C43.2534 22.4999 42.75 23.1292 42.75 23.9061V35.1561C42.75 35.9331 43.2534 36.5624 43.875 36.5624H50.625C51.2466 36.5624 51.75 35.9331 51.75 35.1561V32.3436C51.75 31.5667 51.2466 30.9374 50.625 30.9374ZM69.9961 19.6944L47.4961 0.943838C46.7568 0.328308 45.8883 -0.00012207 45 -0.00012207C44.1117 -0.00012207 43.2432 0.328308 42.5039 0.943838L20.0039 19.6944C19.3876 20.208 18.8823 20.9038 18.5327 21.7201C18.1831 22.5364 18.0002 23.4479 18 24.3737V89.9999H36V64.6874C36 63.1335 37.0069 61.8749 38.25 61.8749H51.75C52.9931 61.8749 54 63.1335 54 64.6874V89.9999H72V24.3755C72 22.4946 71.2477 20.7368 69.9961 19.6944ZM45 44.9999C38.7872 44.9999 33.75 38.7034 33.75 30.9374C33.75 23.1714 38.7872 16.8749 45 16.8749C51.2128 16.8749 56.25 23.1714 56.25 30.9374C56.25 38.7034 51.2128 44.9999 45 44.9999ZM85.5 33.7499H76.5V89.9999H87.75C88.9931 89.9999 90 88.7413 90 87.1874V39.3749C90 36.2688 87.9848 33.7499 85.5 33.7499Z" fill="#043249"/>
</g>
<defs>
<clipPath id="clip0_7_256">
<rect width="90" height="90" fill="white"/>
</clipPath>
</defs>
</svg>
