<svg width="90" height="90" viewBox="0 0 90 90" fill="none" xmlns="http://www.w3.org/2000/svg">
<path d="M8.31787 85.767C12.0866 83.8124 17.5218 79.9803 24.7077 74.053L16.1999 65.6155C10.3429 72.7311 6.51084 78.1663 4.55615 82.0053C6.64443 82.0686 8.24756 83.742 8.31787 85.767Z" fill="#BDBDBD"/>
<path d="M3.43145 86.878C3.98692 87.4334 5.24551 87.2295 7.12989 86.3225C7.48145 86.1819 7.8963 85.9709 8.24786 85.767C8.21686 84.7773 7.80985 83.8366 7.10968 83.1365C6.40951 82.4363 5.46882 82.0293 4.47911 81.9983C4.26817 82.4202 4.05723 82.7647 3.92364 83.1163C3.08692 85.0006 2.9463 86.3225 3.43145 86.878Z" fill="#616161"/>
<path d="M8.37412 79.8117C8.26162 79.9101 8.14209 80.0085 8.02256 80.114C7.80459 80.2968 7.54443 80.4937 7.26318 80.4234C7.38975 79.9101 7.66396 79.446 7.93115 78.989C9.88584 75.6843 11.3132 73.1601 14.1397 70.5093C14.3296 70.3335 14.5405 70.1507 14.7937 70.1085C15.2085 70.0452 15.5741 70.3827 15.7991 70.7273C16.0312 71.0788 16.4038 71.7468 16.3405 72.1898C16.2772 72.6609 15.7569 72.9421 15.4054 73.2585C12.839 75.5718 11.0038 77.5406 8.37412 79.8117Z" fill="#EEEEEE"/>
<path d="M75.846 5.47016C75.1359 4.84438 73.8773 3.69829 73.8773 3.69829C73.1671 3.0725 72.239 2.76313 71.2687 2.81938C70.2984 2.88266 69.4195 3.30454 68.8078 3.9936C66.0023 6.73579 63.1898 9.47797 60.3843 12.2202C56.5593 15.9608 47.2851 25.0522 46.6664 25.8256C46.0476 26.6061 46.4625 27.042 46.5328 27.1194C47.4609 28.1389 49.1273 28.2795 50.3437 27.6186C51.5531 26.9577 52.3195 25.6428 52.5445 24.2788C52.6921 23.3928 52.7484 22.9498 53.4023 22.3733C53.6414 22.1623 66.9656 9.72407 69.0046 7.40375C69.3421 7.01704 70.3546 6.20844 71.4656 7.05922C71.6414 7.19282 75.4945 10.4413 75.4945 10.4413L77.9484 7.65688L77.9414 7.49516C77.9273 7.30532 77.9273 7.30532 75.846 5.47016Z" fill="#BDBDBD"/>
<path d="M51.6095 38.6718L46.2376 33.2999C24.3423 55.4835 16.6431 63.9984 14.7517 66.4382C14.4212 66.8671 14.4564 67.4718 14.8431 67.8585L22.4861 75.2273C22.8728 75.614 23.4775 75.6492 23.9064 75.3187C26.3462 73.4273 34.8751 66.0163 57.0517 44.121C56.9814 44.0437 51.6095 38.6718 51.6095 38.6718Z" fill="#1565C0"/>
<path d="M73.7647 7.36156C73.3287 6.68656 72.267 5.73031 71.5357 5.39984C70.699 5.02719 70.0803 5.39281 69.5459 5.86391C68.6037 6.69359 62.3389 13.1975 60.9678 14.9061C60.8131 15.103 60.6514 15.3209 60.6514 15.567C64.2303 12.1709 67.8725 8.81703 69.0326 7.81156C69.9186 7.04516 70.7764 6.36312 71.4725 7.05922C71.5428 7.12953 72.0279 7.51625 72.9068 8.25453L73.7647 7.36156Z" fill="#757575"/>
<path d="M86.5617 11.9529C87.4266 10.7084 86.2102 7.97326 84.2625 6.08889C82.3078 4.20451 79.643 2.8967 78.3984 3.78967C77.1609 4.68264 61.9313 15.2998 44.3531 33.7217C43.868 34.2772 43.868 35.1139 44.3531 35.6061L54.8156 46.0686C55.3008 46.5537 56.1445 46.624 56.7 46.0686C75.0516 28.4201 85.7039 13.1975 86.5617 11.9529Z" fill="#1565C0"/>
<path d="M20.6435 66.1217C19.863 66.7334 17.5498 67.8303 19.3287 65.0459C19.7505 64.392 21.1779 62.6272 21.7826 61.917C24.1099 59.1608 37.4412 45.6819 39.8107 43.1928C41.7373 41.1678 43.4388 40.6756 43.9943 42.0819C44.374 43.0522 43.5865 44.1772 39.4802 48.5506C36.063 52.1788 24.6865 62.9225 20.6435 66.1217ZM58.8724 28.7928C58.8724 28.7928 56.4045 31.7741 54.6115 30.2623C53.1912 29.06 56.4818 26.2123 56.4818 26.2123C56.5662 26.1209 67.8513 15.5178 71.2052 12.8248C72.5834 11.7139 74.3412 10.4764 74.8263 10.9053C75.3115 11.3342 74.5099 12.6983 72.3935 14.8006C70.2701 16.903 58.9498 28.7084 58.8724 28.7928Z" fill="#2196F3"/>
<path d="M50.8572 22.8514C50.3088 23.21 50.5268 24.8483 50.1893 25.685C49.915 26.3529 49.9221 26.7045 50.4846 26.5358C51.0822 26.353 51.7502 25.4529 51.7502 24.0537C51.7432 23.3717 51.4268 22.4717 50.8572 22.8514Z" fill="#EEEEEE"/>
<path d="M73.1602 7.67798L72.5273 8.17017C74.0039 9.0772 75.8672 10.4764 77.7867 12.3959C78.6375 13.2467 79.8117 14.6038 80.2195 15.4264C80.5992 16.2069 80.7398 17.4022 80.4164 18.5202C80.0648 19.7366 79.5094 20.285 79.2844 21.5225C80.4023 20.1374 82.6594 17.2475 82.6594 17.2475C82.6594 17.2475 81.682 14.7374 78.3422 11.3905C75.0023 8.0436 73.1602 7.67798 73.1602 7.67798Z" fill="#0D47A1"/>
<path d="M84.2623 6.08896C82.7506 4.6335 80.817 3.52256 79.4459 3.50146C79.4459 3.50146 81.9139 4.82334 83.3342 6.67256C84.8389 8.62725 85.8162 10.4062 85.1412 11.5241C84.0162 13.1413 74.0459 27.2952 56.4678 44.3319C56.3963 44.4019 56.3101 44.4552 56.2156 44.4879C56.121 44.5207 56.0204 44.5321 55.9209 44.5213C55.8214 44.5106 55.7256 44.4779 55.6402 44.4257C55.5548 44.3735 55.4821 44.3031 55.4272 44.2194C54.4287 42.6796 53.0928 41.0554 51.0959 39.0655C48.2412 36.2108 46.399 34.9241 44.2545 33.8413C44.2545 33.8413 43.7623 34.1015 43.6357 34.9663C43.5514 35.5218 43.6006 35.9718 43.6006 35.9718L44.2053 35.4163C45.8857 36.3585 47.9318 37.8773 50.1115 40.064C51.0467 40.9991 51.8904 41.9413 52.6217 42.8483C52.7201 43.0312 53.4514 44.578 51.9537 46.9757C51.9537 46.9757 51.7287 47.264 51.3912 47.714C33.792 64.9757 25.6076 72.3374 23.9975 73.4343C22.31 74.5804 21.417 74.1937 21.417 74.1937C21.6279 74.4046 22.092 74.9249 22.6123 75.3327C23.1396 75.7476 23.7092 75.4663 23.899 75.3116C25.9381 73.7296 32.224 68.3015 47.1514 53.8101C47.1725 53.789 47.1936 53.7749 47.2076 53.7538C49.4014 51.6233 51.785 49.296 54.3654 46.7577C54.3795 46.7577 54.8225 46.8069 55.3709 46.7226C56.2287 46.596 56.5522 46.1952 56.5522 46.1952V46.1882C56.6014 46.153 56.6506 46.1108 56.6998 46.0687C75.0514 28.4202 85.6967 13.1976 86.5615 11.953C87.4264 10.7085 86.217 7.97334 84.2623 6.08896Z" fill="#0D47A1"/>
<path d="M54.1968 35.9788C52.0382 33.8202 49.528 31.8444 47.2851 30.6983C47.2851 30.6983 46.7296 30.6631 46.2093 31.2397C45.8155 31.6756 45.7241 32.2944 45.7241 32.2944C47.4257 33.0467 49.9147 34.6569 52.7202 37.4553C54.8296 39.5647 56.5452 41.7866 57.5507 43.7272C57.7546 44.1209 57.9093 44.4655 58.0288 44.7819C58.0288 44.7819 58.6476 44.7889 59.1679 44.3389C59.7515 43.8256 59.6319 43.2069 59.6319 43.2069C58.521 40.8795 56.4608 38.2428 54.1968 35.9788Z" fill="#FFC107"/>
<path d="M80.9647 9.21789C79.5092 7.76242 77.892 6.39836 76.31 5.30852C76.31 5.30852 75.2272 4.89367 74.2357 5.80774C73.2443 6.7218 73.167 7.68508 73.167 7.68508C74.6436 8.59211 76.4084 9.94211 78.3279 11.8616C80.1209 13.6546 81.6256 15.539 82.6592 17.2546C82.6592 17.2546 83.7561 17.1702 84.5295 16.2491C85.3029 15.328 85.0287 14.1046 85.0287 14.1046C83.9178 12.4382 82.4904 10.7437 80.9647 9.21789Z" fill="#BDBDBD"/>
<path d="M75.3679 6.16627C74.9953 6.24361 74.6437 6.53189 74.6226 6.91158C74.6015 7.2983 74.9109 7.60767 75.1992 7.86783C76.0992 8.68345 77.0343 9.51314 78.1874 9.89986C78.4406 9.98424 78.771 10.0335 78.9468 9.82955C79.0593 9.70298 79.0664 9.51314 79.0523 9.34439C78.996 8.6483 78.6445 8.00845 78.1874 7.48111C77.4703 6.66548 76.5281 5.9272 75.3679 6.16627Z" fill="#EEEEEE"/>
</svg>
