<svg width="100" height="100" viewBox="0 0 100 100" fill="none" xmlns="http://www.w3.org/2000/svg">
<path d="M41.6668 86.111C41.6668 92.2471 39.4695 97.2221 33.3334 97.2221H13.889C2.77789 97.2221 2.77789 58.3333 13.889 58.3333H33.3334C39.4695 58.3333 41.6668 63.3083 41.6668 69.4444V86.111Z" fill="#553788"/>
<path d="M94.4443 91.6666H91.6666V63.8888H94.4443C95.1811 63.8888 95.8876 63.5962 96.4085 63.0752C96.9295 62.5543 97.2221 61.8477 97.2221 61.111C97.2221 60.3743 96.9295 59.6678 96.4085 59.1468C95.8876 58.6259 95.1811 58.3333 94.4443 58.3333H27.7777C16.6666 58.3333 16.6666 97.2221 27.7777 97.2221H94.4443C95.1811 97.2221 95.8876 96.9295 96.4085 96.4086C96.9295 95.8876 97.2221 95.1811 97.2221 94.4444C97.2221 93.7077 96.9295 93.0011 96.4085 92.4802C95.8876 91.9592 95.1811 91.6666 94.4443 91.6666Z" fill="#9266CC"/>
<path d="M94.922 91.6666H30.5553C24.9998 91.6666 24.9998 63.8889 30.5553 63.8889H94.922C97.9887 63.8889 97.9887 91.6666 94.922 91.6666Z" fill="#CCD6DD"/>
<path d="M31.9445 69.4444H96.8056C96.4306 66.1805 95.8057 63.8889 94.9223 63.8889H30.5557C25.9695 63.8889 25.1723 82.8 28.1584 89.4111C27.0695 81.1916 28.3307 69.4444 31.9445 69.4444Z" fill="#99AAB5"/>
<path d="M33.3334 22.2222C33.3334 25.169 32.1628 27.9952 30.079 30.0789C27.9953 32.1626 25.1691 33.3333 22.2223 33.3333H11.1112C5.4121e-05 33.3333 5.4121e-05 2.77771 11.1112 2.77771H22.2223C25.1691 2.77771 27.9953 3.94834 30.079 6.03208C32.1628 8.11582 33.3334 10.942 33.3334 13.8888V22.2222Z" fill="#226699"/>
<path d="M86.1113 27.7777H83.3336V8.33327H86.1113C86.848 8.33327 87.5546 8.04061 88.0755 7.51967C88.5965 6.99874 88.8891 6.2922 88.8891 5.55549C88.8891 4.81878 88.5965 4.11224 88.0755 3.5913C87.5546 3.07037 86.848 2.77771 86.1113 2.77771H19.4447C8.33355 2.77771 8.33355 33.3333 19.4447 33.3333H86.1113C86.848 33.3333 87.5546 33.0406 88.0755 32.5197C88.5965 31.9987 88.8891 31.2922 88.8891 30.5555C88.8891 29.8188 88.5965 29.1122 88.0755 28.5913C87.5546 28.0704 86.848 27.7777 86.1113 27.7777Z" fill="#55ACEE"/>
<path d="M86.589 27.7777H22.2223C16.6668 27.7777 16.6668 8.33325 22.2223 8.33325H86.589C89.6557 8.33325 89.6557 27.7777 86.589 27.7777Z" fill="#CCD6DD"/>
<path d="M22.2224 13.8888H88.6807C88.364 10.7638 87.6696 8.33325 86.589 8.33325H22.2224C18.9085 8.33325 17.5863 15.2471 18.2279 20.8333C18.6613 17.061 19.9807 13.8888 22.2224 13.8888Z" fill="#99AAB5"/>
<path d="M55.5557 47.2221C55.5557 50.169 54.3851 52.9951 52.3013 55.0789C50.2176 57.1626 47.3915 58.3332 44.4446 58.3332H16.6668C5.55572 58.3332 5.55572 33.3333 16.6668 33.3333H44.4446C47.3915 33.3333 50.2176 34.5039 52.3013 36.5876C54.3851 38.6714 55.5557 41.4975 55.5557 44.4444V47.2221Z" fill="#F4900C"/>
<path d="M97.2224 52.7777H94.4446V38.8888H97.2224C97.9591 38.8888 98.6656 38.5961 99.1866 38.0752C99.7075 37.5543 100 36.8477 100 36.111C100 35.3743 99.7075 34.6678 99.1866 34.1468C98.6656 33.6259 97.9591 33.3333 97.2224 33.3333H41.6668C30.5557 33.3333 30.5557 58.3332 41.6668 58.3332H97.2224C97.9591 58.3332 98.6656 58.0406 99.1866 57.5197C99.7075 56.9987 100 56.2922 100 55.5555C100 54.8188 99.7075 54.1122 99.1866 53.5913C98.6656 53.0704 97.9591 52.7777 97.2224 52.7777Z" fill="#FFAC33"/>
<path d="M97.7001 52.7777H44.4445C38.8889 52.7777 38.8889 38.8889 44.4445 38.8889H97.7001C100.767 38.8889 100.767 52.7777 97.7001 52.7777Z" fill="#CCD6DD"/>
<path d="M44.4446 44.4444H99.9557C99.7751 41.4944 99.0279 38.8889 97.7001 38.8889H44.4446C40.9057 38.8889 39.6307 44.5194 40.6029 48.6111C41.1529 46.2805 42.4279 44.4444 44.4446 44.4444Z" fill="#99AAB5"/>
</svg>
